<svg width="395" height="79" viewBox="0 0 395 79" fill="none" xmlns="http://www.w3.org/2000/svg">
<path d="M6.92851 51.8848V40.7129H26.4256C31.4386 40.7129 35.3058 39.4417 38.0271 36.8994C40.7843 34.3213 42.1629 30.7048 42.1629 26.0498V25.9424C42.1629 21.2516 40.7843 17.6351 38.0271 15.0928C35.3058 12.5505 31.4386 11.2793 26.4256 11.2793H6.92851V0H29.8631C35.0909 0 39.6743 1.07422 43.6131 3.22266C47.5877 5.37109 50.685 8.39681 52.9051 12.2998C55.1251 16.167 56.2352 20.6966 56.2352 25.8887V25.9961C56.2352 31.1523 55.1251 35.682 52.9051 39.585C50.685 43.4521 47.5877 46.4779 43.6131 48.6621C39.6743 50.8105 35.0909 51.8848 29.8631 51.8848H6.92851ZM-0.000198364 77.5049V0H13.8572V77.5049H-0.000198364ZM62.8438 77.5049V20.5713H76.1641V30.4004H76.4863C77.3457 26.9629 78.9033 24.2773 81.1592 22.3438C83.4508 20.3743 86.2438 19.3896 89.5381 19.3896C90.3617 19.3896 91.1494 19.4434 91.9014 19.5508C92.6533 19.6582 93.2799 19.7835 93.7812 19.9268V32.0117C93.2441 31.7969 92.4743 31.6178 91.4717 31.4746C90.5049 31.3314 89.4486 31.2598 88.3027 31.2598C85.7962 31.2598 83.6299 31.779 81.8037 32.8174C79.9775 33.82 78.5811 35.306 77.6143 37.2754C76.6475 39.2448 76.1641 41.6439 76.1641 44.4727V77.5049H62.8438ZM121.337 78.6328C115.644 78.6328 110.738 77.4333 106.62 75.0342C102.538 72.6351 99.4051 69.2334 97.2209 64.8291C95.0366 60.4248 93.9445 55.2148 93.9445 49.1992V49.1455C93.9445 43.1657 95.0366 37.9557 97.2209 33.5156C99.4409 29.0397 102.538 25.5664 106.513 23.0957C110.523 20.625 115.25 19.3896 120.693 19.3896C126.099 19.3896 130.772 20.5892 134.711 22.9883C138.686 25.3516 141.729 28.6816 143.842 32.9785C145.99 37.2754 147.065 42.2884 147.065 48.0176V52.3145H100.551V43.3984H140.673L134.228 51.7236V46.5674C134.228 42.8434 133.655 39.7461 132.509 37.2754C131.363 34.8047 129.788 32.9606 127.782 31.7432C125.777 30.4899 123.468 29.8633 120.854 29.8633C118.204 29.8633 115.841 30.5078 113.764 31.7969C111.723 33.0501 110.112 34.93 108.93 37.4365C107.784 39.943 107.211 42.9867 107.211 46.5674V51.7236C107.211 55.1969 107.784 58.1689 108.93 60.6396C110.112 63.0745 111.777 64.9544 113.925 66.2793C116.073 67.5684 118.634 68.2129 121.606 68.2129C123.826 68.2129 125.777 67.8727 127.46 67.1924C129.143 66.4762 130.522 65.5632 131.596 64.4531C132.706 63.3431 133.476 62.1436 133.905 60.8545L134.013 60.4785H146.474L146.366 61.0693C145.901 63.2536 145.042 65.402 143.788 67.5146C142.535 69.5915 140.852 71.4714 138.739 73.1543C136.627 74.8372 134.12 76.18 131.22 77.1826C128.32 78.1494 125.025 78.6328 121.337 78.6328ZM174.567 78.6328C169.769 78.6328 165.597 77.4512 162.052 75.0879C158.543 72.6888 155.822 69.2692 153.888 64.8291C151.99 60.389 151.041 55.1253 151.041 49.0381V48.9844C151.041 42.8613 152.008 37.5977 153.942 33.1934C155.875 28.7533 158.597 25.3516 162.106 22.9883C165.615 20.5892 169.751 19.3896 174.513 19.3896C177.234 19.3896 179.723 19.8372 181.979 20.7324C184.271 21.5918 186.294 22.8451 188.048 24.4922C189.803 26.1035 191.217 28.055 192.291 30.3467H192.614V0H205.934V77.5049H192.614V67.8369H192.291C191.253 70.0928 189.857 72.0264 188.102 73.6377C186.383 75.2132 184.378 76.4486 182.086 77.3438C179.83 78.2031 177.324 78.6328 174.567 78.6328ZM178.595 67.4072C181.352 67.4072 183.787 66.6553 185.9 65.1514C188.012 63.6475 189.66 61.5169 190.841 58.7598C192.023 56.0026 192.614 52.762 192.614 49.0381V48.9844C192.614 45.2604 192.005 42.0378 190.787 39.3164C189.606 36.5592 187.959 34.4287 185.846 32.9248C183.769 31.4209 181.352 30.6689 178.595 30.6689C175.731 30.6689 173.242 31.4209 171.129 32.9248C169.052 34.3929 167.441 36.4876 166.295 39.209C165.185 41.9303 164.63 45.1888 164.63 48.9844V49.0381C164.63 52.7979 165.185 56.0563 166.295 58.8135C167.441 61.5706 169.052 63.7012 171.129 65.2051C173.242 66.6732 175.731 67.4072 178.595 67.4072ZM231.825 78.4717C228.065 78.4717 224.735 77.7555 221.835 76.3232C218.97 74.8551 216.732 72.832 215.121 70.2539C213.545 67.64 212.757 64.6501 212.757 61.2842V61.1768C212.757 57.7751 213.599 54.8747 215.282 52.4756C217.001 50.0407 219.471 48.125 222.694 46.7285C225.917 45.2962 229.82 44.4368 234.403 44.1504L256.156 42.8076V51.6699L236.283 52.9053C232.989 53.1201 230.464 53.9079 228.71 55.2686C226.955 56.6292 226.078 58.4375 226.078 60.6934V60.7471C226.078 63.0745 226.955 64.9186 228.71 66.2793C230.5 67.6042 232.863 68.2666 235.799 68.2666C238.378 68.2666 240.669 67.7474 242.674 66.709C244.715 65.6706 246.327 64.2562 247.508 62.4658C248.69 60.6755 249.281 58.6523 249.281 56.3965V39.3164C249.281 36.4518 248.368 34.196 246.542 32.5488C244.751 30.8659 242.155 30.0244 238.754 30.0244C235.602 30.0244 233.078 30.7048 231.18 32.0654C229.282 33.3903 228.101 35.109 227.635 37.2217L227.528 37.7051H215.174L215.228 37.0605C215.515 33.6947 216.643 30.6868 218.612 28.0371C220.581 25.3516 223.303 23.2389 226.776 21.6992C230.285 20.1595 234.439 19.3896 239.237 19.3896C243.999 19.3896 248.117 20.1774 251.59 21.7529C255.1 23.3285 257.803 25.5306 259.701 28.3594C261.634 31.1882 262.601 34.5182 262.601 38.3496V77.5049H249.281V68.75H248.959C247.884 70.7194 246.488 72.4382 244.769 73.9062C243.05 75.3743 241.081 76.5023 238.861 77.29C236.677 78.0778 234.331 78.4717 231.825 78.4717ZM292.359 78.6328C286.451 78.6328 282.047 77.3438 279.146 74.7656C276.282 72.1875 274.849 67.9622 274.849 62.0898V30.8838H266.793V20.5713H274.849V6.12305H288.438V20.5713H299.019V30.8838H288.438V61.0156C288.438 63.7728 289.047 65.6885 290.264 66.7627C291.518 67.8011 293.344 68.3203 295.743 68.3203C296.423 68.3203 297.014 68.3024 297.515 68.2666C298.053 68.195 298.554 68.1413 299.019 68.1055V78.1494C298.232 78.2568 297.265 78.3643 296.119 78.4717C295.009 78.5791 293.756 78.6328 292.359 78.6328ZM330.12 78.6328C324.534 78.6328 319.682 77.4512 315.564 75.0879C311.447 72.6888 308.242 69.2871 305.95 64.8828C303.694 60.4427 302.566 55.1611 302.566 49.0381V48.9307C302.566 42.8434 303.712 37.5977 306.004 33.1934C308.296 28.7533 311.5 25.3516 315.618 22.9883C319.736 20.5892 324.552 19.3896 330.066 19.3896C335.617 19.3896 340.451 20.5892 344.568 22.9883C348.722 25.3516 351.945 28.7354 354.236 33.1396C356.528 37.5439 357.674 42.8076 357.674 48.9307V49.0381C357.674 55.1969 356.528 60.4964 354.236 64.9365C351.98 69.3408 348.794 72.7246 344.676 75.0879C340.558 77.4512 335.706 78.6328 330.12 78.6328ZM330.174 67.8369C333.003 67.8369 335.455 67.1029 337.532 65.6348C339.609 64.1667 341.202 62.0361 342.312 59.2432C343.458 56.4144 344.031 53.0127 344.031 49.0381V48.9307C344.031 44.9919 343.458 41.626 342.312 38.833C341.167 36.04 339.537 33.9095 337.425 32.4414C335.348 30.9733 332.895 30.2393 330.066 30.2393C327.309 30.2393 324.874 30.9733 322.762 32.4414C320.685 33.9095 319.056 36.04 317.874 38.833C316.728 41.626 316.155 44.9919 316.155 48.9307V49.0381C316.155 53.0127 316.728 56.4144 317.874 59.2432C319.056 62.0361 320.685 64.1667 322.762 65.6348C324.874 67.1029 327.345 67.8369 330.174 67.8369ZM364.068 77.5049V20.5713H377.388V30.4004H377.71C378.57 26.9629 380.127 24.2773 382.383 22.3438C384.675 20.3743 387.468 19.3896 390.762 19.3896C391.585 19.3896 392.373 19.4434 393.125 19.5508C393.877 19.6582 394.504 19.7835 395.005 19.9268V32.0117C394.468 31.7969 393.698 31.6178 392.695 31.4746C391.729 31.3314 390.672 31.2598 389.527 31.2598C387.02 31.2598 384.854 31.779 383.028 32.8174C381.201 33.82 379.805 35.306 378.838 37.2754C377.871 39.2448 377.388 41.6439 377.388 44.4727V77.5049H364.068Z" fill="url(#paint0_linear_2183_347)"/>
<defs>
<linearGradient id="paint0_linear_2183_347" x1="-7.20996" y1="38.0049" x2="396.79" y2="38.0049" gradientUnits="userSpaceOnUse">
<stop stop-color="#FFC9C9"/>
<stop offset="1" stop-color="#FF0000"/>
</linearGradient>
</defs>
</svg>
